<svg xmlns="http://www.w3.org/2000/svg" id="Layer_1" data-name="Layer 1" viewBox="0 0 1920 244.88"><defs><style>.cls-1{fill:#d94991;}</style></defs><path class="cls-1" d="M712.82,164.34c0-20.14,0-40.28.06-60.41a40.41,40.41,0,0,1,1.1-9.88c2-7.72,9.67-9.74,14.82-3.67,5.83,6.88,11.2,14.19,16.4,21.58,11.67,16.59,23.12,33.35,34.67,50a20.15,20.15,0,0,0,1.77,2.23c4.16,4.44,7.67,4,11.17-1q18-26,36.13-51.87,6-8.58,12.06-17.08a26.66,26.66,0,0,1,3.48-3.88c6.09-5.64,13.36-4.05,15.42,4,1.36,5.26,1.16,11,1.26,16.48.18,10.12.11,20.24.05,30.36,0,7.13-.31,14.26-.33,21.39,0,4.27.39,8.54.4,12.81q.08,25.68,0,51.35c0,4.35-.74,8.54-3.92,11.9-3.86,4.08-9.63,4.19-12.57-.59A22.52,22.52,0,0,1,841.59,227c-.25-27-.12-53.94-.11-80.91,0-1.9.31-3.94-.26-5.67s-1.8-4-3.32-4.64c-1-.46-3.6,1-4.59,2.29-4.72,6.15-9.25,12.48-13.66,18.87-7.49,10.82-14.82,21.74-22.26,32.59a21,21,0,0,1-2.88,3.16c-6,5.69-11,5.73-16.14-.65-4.58-5.66-8.47-11.87-12.64-17.85-8.59-12.36-17.09-24.79-25.82-37-1-1.42-3.52-2.94-4.87-2.6s-2.59,2.91-2.9,4.68c-.5,2.77-.19,5.69-.19,8.54q0,39.75,0,79.48c0,4.86-1,9.08-4.93,12.31-4.21,3.46-9.84,2.68-11.87-2.32a32.3,32.3,0,0,1-2.27-11.5C712.71,205.25,712.82,184.79,712.82,164.34Z"></path><path class="cls-1" d="M93.13,164c0-21.25-.06-42.5.07-63.74A20.19,20.19,0,0,1,94.79,92c2.69-5.71,8.44-6.93,13.51-3.17a18.17,18.17,0,0,1,3.92,4.1c10.37,14.79,20.65,29.63,31,44.44,6.08,8.7,12.14,17.42,18.34,26,3.66,5.09,7.28,5.15,11,0,10.29-14.26,20.39-28.67,30.62-43,7-9.79,14.12-19.51,21.17-29.28,2.5-3.46,5.8-4.9,9.94-3.76S240.35,92,240.63,96c.34,5,.26,10.09.34,15.14q.25,16.86.49,33.74c0,3.64,0,7.28-.05,10.92-.13,5.54-.4,11.08-.49,16.62s-.13,11.36,0,17c.17,8.24.67,16.47.7,24.7,0,5.7-.39,11.4-.84,17.08s-4,9.71-8.36,10.15-8.53-3-9.81-8.56a40.62,40.62,0,0,1-.87-8.95q-.08-36.87,0-73.74c0-1.9.4-4-.22-5.66-.75-2-2-4.79-3.73-5.34s-4.63.7-6.13,2.11c-2.39,2.23-4.07,5.23-6,7.95q-14.5,20.58-29,41.19a19.22,19.22,0,0,1-1.84,2.19c-5.44,5.69-11.89,5.28-16.45-1.21-11.37-16.22-22.63-32.51-34-48.73a25.86,25.86,0,0,0-5-5.68c-3.33-2.6-6.6-1-7.07,3.12a47.9,47.9,0,0,0-.11,5.23c0,26.16.07,52.33,0,78.49a50.67,50.67,0,0,1-1.08,9.89c-1.08,5.24-4.39,8-8.68,7.82-4.09-.19-8.29-4.05-9-8.54a39.54,39.54,0,0,1-.27-6.16Q93.12,195.44,93.13,164Z"></path><path class="cls-1" d="M438.17,228.85c1.07-3.46,1.91-7,3.26-10.36,7.5-18.67,15.16-37.27,22.69-55.93,10.09-25,20.2-49.95,30.13-75C500.37,72.11,506,56.45,512.18,41c4.3-10.74,9.14-21.26,13.76-31.86a15,15,0,0,1,1.13-2.09c4.68-7.52,12.87-7.54,16.86.34,3.35,6.62,6,13.62,8.75,20.54Q571.52,75.46,590.24,123c3.39,8.54,7.09,17,10.47,25.5q15.13,38.24,30.13,76.51c1.6,4.06,1.34,7.68-2,10.89-3.67,3.53-7.79,3.81-11.19-.07a31.37,31.37,0,0,1-5.44-8.82c-10.37-25.91-20.48-51.91-30.81-77.83-9.79-24.57-19.79-49.06-29.64-73.61-3.65-9.12-7.15-18.3-10.68-27.47-1-2.51-1.45-5.46-5-5.55s-5.35,2.43-6.51,5.34c-3.22,8.1-6.24,16.28-9.49,24.36-7.47,18.52-15.07,37-22.52,55.5-4.43,11-8.62,22.14-13,33.18q-13.14,33.13-26.43,66.2a31.84,31.84,0,0,1-4.88,8.07c-2.49,3-5.94,4.32-9.82,2.74S438.47,233,438.17,228.85Z"></path><path class="cls-1" d="M1760.88,124.36V211c0,1.59,0,3.18.09,4.76.41,5.08,2.74,7.44,7.91,7.59,6.18.17,12.37.05,18.56.05,22.84,0,45.69-.06,68.53.09a31.9,31.9,0,0,1,10.69,1.73c6.37,2.36,7.61,8.7,2.46,13.11-2.46,2.1-6.1,4-9.22,4-35.06.28-70.12.22-105.17.13-7.29,0-11.87-4.18-13-11.31a36.18,36.18,0,0,1-.49-6.15c.16-17.9.54-35.8.53-53.7,0-20.9-.39-41.81-.5-62.71,0-6.5.44-13,.42-19.49,0-7.92-.41-15.84-.45-23.77q-.12-21.39,0-42.77c.07-11.32,4.61-15.91,16-15.94q50.2-.12,100.41,0c4.54,0,8.85.76,12.18,4.32,3.59,3.82,3.53,8.72-1,11.26a24.49,24.49,0,0,1-11.18,3.09c-27.6.24-55.2.12-82.81.11-1.58,0-3.17,0-4.75,0-7.12.13-9.09,2-9.11,9.09-.1,26.33-.08,52.66-.11,79v10.94Z"></path><path class="cls-1" d="M1648.59,242.15c-16.2,2-31.7-1.38-46.66-6.92-20.36-7.54-37.23-19.93-50-37.78-9.86-13.74-17-28.7-20.48-45.12-2.89-13.77-4.31-27.89-2.31-42,1.11-7.81,2.55-15.6,4.29-23.3a96.27,96.27,0,0,1,14.17-32c18.36-27.56,43.35-44.69,76.74-49.88a149.15,149.15,0,0,1,64.83,4.1,23.11,23.11,0,0,1,8.22,4.49c4.66,3.9,4.41,8.9-.71,12.2-2.22,1.43-5.27,1.89-8,2.1a14.71,14.71,0,0,1-6.5-1.24c-10.16-4.25-20.89-5.21-31.68-5.44-16-.35-31.45,1.71-46.27,8.53-15.52,7.14-28.59,17-38.26,31.08-10.76,15.62-18.09,32.61-19.05,51.91-.75,15.15,0,30.14,4.92,44.62,5.69,16.75,14,31.85,28,43.33,27.67,22.79,59,29,93.56,20.92,4.78-1.12,9.43-2.75,14.16-4.09,5.68-1.61,10.34.42,12.16,5.26s-.46,9.36-6.1,11.69C1679.15,240.55,1664.3,244.14,1648.59,242.15Z"></path><path class="cls-1" d="M1322.13,84c0,19.83.07,39.66-.07,59.49a26.33,26.33,0,0,1-1.63,9.73c-2.88,6.89-10,8.29-14.85,2.63-5.33-6.25-9.87-13.19-14.66-19.89q-13.68-19.16-27.25-38.38c-8.11-11.54-16.11-23.17-24.14-34.78q-13.24-19.17-26.46-38.37a25.92,25.92,0,0,1-2.42-4.08A8.81,8.81,0,0,1,1213,9.59a8,8,0,0,1,10.88.31,45.94,45.94,0,0,1,6.75,7.94q26.1,37.16,52.08,74.4c4,5.71,8,11.41,12.38,16.87,1.18,1.49,3.5,2.06,5.31,3.06.9-1.91,2.52-3.8,2.58-5.73.28-8.87.11-17.76.11-26.65,0-19.35-.1-38.71,0-58.06a24.2,24.2,0,0,1,1.58-8.74c1.55-3.79,5-5.1,9-4.74s6.51,2.54,7.32,6.37a44.9,44.9,0,0,1,1,8.94c.09,20.14.05,40.29.05,60.44Z"></path><path class="cls-1" d="M1232.48,157.23c0,13.94.11,27.88,0,41.82-.11,10.62-.54,21.24-.82,31.85-.12,4.31-1.84,7.64-5.78,9.67a7.09,7.09,0,0,1-8.41-1.16,14.53,14.53,0,0,1-3.59-5.84c-.61-1.71-.31-3.76-.32-5.66q0-61.62,0-123.24c0-1.74,0-3.49.11-5.23.33-4.77,3.15-8.6,7.07-9.73,3.56-1,7.6.85,10.5,4.9,2.77,3.86,5.57,7.71,8.27,11.62,12.73,18.37,25.34,36.81,38.17,55.11,13.19,18.81,26.6,37.45,39.85,56.22,2.28,3.23,4.87,6.46,6.15,10.11a14.6,14.6,0,0,1,0,9.44c-1.83,4.7-6.49,5.85-10.63,2.93a32.87,32.87,0,0,1-7.64-7.66c-14.25-20.2-28.29-40.57-42.47-60.83-6.81-9.73-13.66-19.44-20.78-29-1.32-1.76-4.29-3.71-6-3.34s-3.39,3.49-3.81,5.65c-.77,4-.6,8.19-.83,12.3Z"></path><path class="cls-1" d="M1574.45,116.82c1.29-20.9,10.68-43.07,32.8-57.63,21.56-14.18,45.12-16.56,69.46-6.82,3.82,1.53,7.76,2.77,11.54,4.4,5.88,2.53,7.85,7.25,5.52,12.65-2.16,5-6.4,6.74-12.25,3.75-15.14-7.7-31.09-8.43-47.27-5.67-10.19,1.74-18.58,7.54-26.06,14.68-11.84,11.31-15.07,26.21-15.34,41.29-.68,37.63,29.14,59.17,60.51,56.7,8.75-.69,16.69-3.27,24.67-6.4a22.24,22.24,0,0,1,8.75-1.66c7.09.29,10.52,7.74,6.38,13.48a11.3,11.3,0,0,1-3.77,3.52c-21.07,10.46-42.52,14.32-65.59,5.92a73.08,73.08,0,0,1-31.24-21.46C1579.75,158.7,1574.33,141.28,1574.45,116.82Z"></path><path class="cls-1" d="M68.46,123.25c0,34.08.09,68.16-.11,102.24a28.44,28.44,0,0,1-2.63,11.82c-2.5,5.22-8.43,5.59-12.77,1.68-4.14-3.73-5.22-8.47-5.21-13.74,0-17.91,0-35.82,0-53.73q0-76.56-.06-153.11a15,15,0,0,1,4-10.84c5.19-5.46,12.48-4.35,15.17,2.74a29.36,29.36,0,0,1,1.56,10.23C68.5,54.78,68.46,89,68.46,123.25Z"></path><path class="cls-1" d="M245.06,13.65c-.88,2.17-1.38,4.59-2.68,6.47q-20.1,29.13-40.44,58.1C194,89.51,186,100.69,178.08,112s-13.51,11.33-21.46-.1c-11.85-17-24-33.85-35.93-50.82-9.57-13.61-19-27.3-28.49-41-2.12-3.07-3.74-6.34-2-10.2,2.76-6.21,9.48-7.81,14.4-3.09a71.16,71.16,0,0,1,8.87,10.49q22.65,32.27,45,64.72c1.18,1.69,2.07,3.58,3.31,5.21,3.15,4.15,7.68,4.17,10.62-.06Q195.52,54,218.53,20.82c3.17-4.55,6.35-9.1,9.82-13.42a8.88,8.88,0,0,1,10.3-2.77A10.28,10.28,0,0,1,245.06,13.65Z"></path><path class="cls-1" d="M787.16,121.39c-2.83-1.85-5.68-2.92-7.36-5q-7.54-9.15-14.32-18.92C752.24,78.36,739.22,59,726,39.85c-4.13-6-8.58-11.78-12.88-17.66a26.41,26.41,0,0,1-1.61-2.35C708.39,14.34,709,9.22,713,6.12c4.25-3.27,8.82-2.58,13.27,2.55a126.16,126.16,0,0,1,7.8,10.77C744.19,34,754.25,48.61,764.4,63.16q8.7,12.47,17.65,24.75c2.9,4,6.86,3.91,9.82-.19,5.55-7.72,10.9-15.57,16.31-23.39q10.26-14.85,20.47-29.74C833.86,27,839,19.4,844.25,11.86a27,27,0,0,1,4.33-5c4.34-3.75,7.82-4.11,11.08-1.47,4.48,3.63,5.67,8.27,2.62,13-5.22,8.12-10.79,16-16.26,24Q827.71,69,809.31,95.55c-5,7.15-10.08,14.23-15.44,21.09C792.35,118.58,789.69,119.65,787.16,121.39Z"></path><path class="cls-1" d="M285.6,122.55c0,35.06,0,70.12-.1,105.18a21.88,21.88,0,0,1-2.31,9.45,8,8,0,0,1-8.83,4.3,8.11,8.11,0,0,1-6.76-6.59,70.87,70.87,0,0,1-1.72-14.11q-.17-97.32-.05-194.65c0-3.48.32-7,.53-10.45.42-6.85,4.43-11.74,9.55-11.68,5.63.06,9.61,4.79,9.63,12,.08,26.17,0,52.35.06,78.52Z"></path><path class="cls-1" d="M403.61,124.63q0,51.15,0,102.3c0,4.81-.88,9.08-4.75,12.39-4.54,3.89-10.87,2.8-12.78-2.88a43.34,43.34,0,0,1-2.2-13.51q-.19-99,0-197.93a43.3,43.3,0,0,1,1.54-10.78c1.08-4.08,4.74-6.79,8.33-6.6,4.18.23,7.41,2.29,8.64,6.32a31.11,31.11,0,0,1,1.18,8.87Q403.68,73.72,403.61,124.63Z"></path><path class="cls-1" d="M904.33,122.54c0,34.58,0,69.16-.06,103.74a31.28,31.28,0,0,1-1.5,10.25c-2,5.63-8.68,7.09-12.66,2.66-2.19-2.43-3.39-5.91-4.5-9.11-.64-1.86-.23-4.09-.23-6.15q0-101.11,0-202.25a43.73,43.73,0,0,1,1.06-10.35,8.56,8.56,0,0,1,9-6.94c4.3.2,7,2.49,8.07,7.34a41.58,41.58,0,0,1,.7,8.5q.06,51.15,0,102.31Z"></path><path class="cls-1" d="M340.74,124.15q0-50.91,0-101.82a33.31,33.31,0,0,1,.62-7.54,9.29,9.29,0,0,1,8.52-7.12A9.06,9.06,0,0,1,358.54,14a28.78,28.78,0,0,1,1.33,8.38q.11,101.82,0,203.64a35.24,35.24,0,0,1-1.8,9.73,7.88,7.88,0,0,1-6.88,5.8,7.56,7.56,0,0,1-7.94-4.19,22.31,22.31,0,0,1-2.38-9.44C340.68,193.3,340.74,158.73,340.74,124.15Z"></path><path class="cls-1" d="M1483,124.47c0,33.94,0,67.88-.07,101.83a27.63,27.63,0,0,1-1.67,9.69,8.23,8.23,0,0,1-8.21,5.45c-3.9-.15-6.54-2.55-7.69-6.12a27.53,27.53,0,0,1-1.46-8.37q-.12-102.78-.07-205.56c0-4.27.91-8.16,4.29-11.17,4.23-3.76,9.78-3.44,12.51,1.52a21.52,21.52,0,0,1,2.27,9.94C1483.07,55.94,1483,90.2,1483,124.47Z"></path><path class="cls-1" d="M1365.23,124.12q0,52.07,0,104.13c0,4.08-.42,7.83-3.73,10.81-4.77,4.3-11.36,3.05-13.32-3.11a42.39,42.39,0,0,1-1.94-12.61q-.16-99.85,0-199.7a34,34,0,0,1,1.3-8.9c1.35-4.89,4.75-7,9.62-6.56,4.72.44,7.53,3.37,8,8.48.17,2.05.11,4.12.11,6.18Q1365.25,73.48,1365.23,124.12Z"></path><path class="cls-1" d="M1003.31,124.09q0-51.15,0-102.31c0-4.43.63-8.48,4.16-11.67,4.88-4.4,10.89-3.24,12.74,3A46.77,46.77,0,0,1,1022,26.24q.16,99.21,0,198.43a40.82,40.82,0,0,1-1.35,10.32c-.93,3.56-3.31,6.21-7.33,6.5a7.61,7.61,0,0,1-7.9-5,27.92,27.92,0,0,1-2.08-10.06C1003.25,192.3,1003.31,158.2,1003.31,124.09Z"></path><path class="cls-1" d="M979.32,123.46q0,49.47,0,98.92a44.93,44.93,0,0,1-.83,9.92,14.57,14.57,0,0,1-3.5,6.51c-4.51,4.68-10.71,3.26-12.67-2.95a36.32,36.32,0,0,1-1.65-10.75q-.15-98.45,0-196.88a97.79,97.79,0,0,1,1-12.31c.6-4.6,3.52-7.65,7.42-8.18,3.44-.47,7.66,2.26,8.91,6.51a36,36,0,0,1,1.28,9.82Q979.4,73.77,979.32,123.46Z"></path><path class="cls-1" d="M687.47,122.23q0,52.8,0,105.6c0,4.24-.27,8.24-3.85,11.25-2.48,2.08-5.13,3.16-8.32,2a7.56,7.56,0,0,1-5.23-6.75,103.94,103.94,0,0,1-.68-10.43q-.06-101.32,0-202.64a71.54,71.54,0,0,1,.63-9.48c.62-4.67,3.65-7.48,7.74-7.57a9.38,9.38,0,0,1,9.48,7.68,40.08,40.08,0,0,1,.2,5.7Q687.48,69.9,687.47,122.23Z"></path><path class="cls-1" d="M1421,124.11q0-50.92,0-101.85a39.55,39.55,0,0,1,.34-6.63c.68-4,4.43-7.58,7.89-7.94,3.81-.39,7.53,2.05,8.81,6.54a36.46,36.46,0,0,1,1.27,9.82q.14,51.17.05,102.33,0,48.32,0,96.62a53.83,53.83,0,0,1-1.07,10.83c-1,4.95-4.15,7.7-7.82,7.67-4,0-8.34-3.87-9.08-8.42a48,48,0,0,1-.36-7.59Q1421,174.8,1421,124.11Z"></path><path class="cls-1" d="M1188.05,124.44q0,50.17-.06,100.34a55.56,55.56,0,0,1-1.25,10.81c-.63,3.13-2.57,5.47-6,5.94s-6.64-.85-8-3.86a25.82,25.82,0,0,1-2.63-10.38c-.17-39.79-.11-79.58-.1-119.37,0-28,0-56.11,0-84.17a39.7,39.7,0,0,1,1.23-9.83c1.06-4,4.12-5.83,8.27-5.74,4,.08,6.64,2.12,7.61,6.5a42.59,42.59,0,0,1,.91,8.94Q1188.11,74,1188.05,124.44Z"></path><path class="cls-1" d="M1829,198.81c-9.84,0-19.67.16-29.51,0-10.14-.21-14.33-4-14.69-14.11-.41-11.56-.34-23.16,0-34.73.24-8.77,5.16-13.2,14-13.26,13.49-.1,27-.23,40.45.11a16.69,16.69,0,0,1,9,3.21c5.18,3.91,5,9.33-.5,12.88a19.29,19.29,0,0,1-9.33,2.75c-8.39.36-16.81.09-25.21.1-7.37,0-9.2,1.82-9.37,9.29-.05,2.22-.07,4.45,0,6.67.29,6.41,2,8.14,8.42,8.15,15.23,0,30.46-.21,45.68.13a19.67,19.67,0,0,1,10.53,3.29c5.92,4.26,4.4,11.92-2.58,14.42a24.58,24.58,0,0,1-7.94,1.14c-9.68.13-19.36.05-29,.05Z"></path><path class="cls-1" d="M1828.6,50.08c10.46,0,20.93.06,31.39,0a12.38,12.38,0,0,1,10.28,5c3.53,4.38,2.2,10-3.18,11.88a28.68,28.68,0,0,1-8.87,1.21c-15.06.1-30.12,0-45.17,0-7.28,0-8.93,1.62-9.12,8.9-.07,2.69-.1,5.4,0,8.08.3,5.39,2.65,7.74,8.1,7.82,8.08.12,16.19-.32,24.24.17A29.35,29.35,0,0,1,1848,96.33c5.22,2.76,5.7,7.91,1.15,11.62-2.52,2.07-6.09,3.88-9.24,4-13.93.41-27.89.29-41.83.11-7.94-.11-12.94-4.67-13.21-12.72-.41-12.18-.44-24.41,0-36.59.36-9.2,4.54-12.6,13.76-12.64C1808.63,50.05,1818.62,50.08,1828.6,50.08Z"></path><path class="cls-1" d="M535.43,201.51c9.52,0,19,.1,28.54,0,7.12-.11,11.64,3.24,14.29,9.64,1.93,4.69,4.1,9.28,6.06,14,2.37,5.64,1.15,9.88-3.39,12.29s-9.32.89-12.52-4.23a38,38,0,0,1-2.79-5.51c-2.11-5.05-5.94-7.08-11.26-7.06-12.84.06-25.69.07-38.53,0-5.23,0-8.54,2.39-11,6.85a43.44,43.44,0,0,1-6.2,8.85c-2.62,2.83-6.12,3.19-9.58,1.2a8.24,8.24,0,0,1-3.88-9.4,169.71,169.71,0,0,1,7-18.17c2.61-5.6,7.35-8.45,13.78-8.37C515.77,201.6,525.6,201.51,535.43,201.51Z"></path><path class="cls-1" d="M535,177.85c-5.21-.28-10.47-.23-15.62-.93s-7.87-3.93-8.27-8.42c-.43-4.89,1.41-8,6.17-9.34a46.48,46.48,0,0,1,9.36-1.29c6.29-.42,8.55-3.43,6.55-9.44-1.4-4.2-3.38-8.22-4.68-12.45a30.36,30.36,0,0,1-1.17-8.39c-.06-3.39,2.19-5.47,5.09-6.83a6.13,6.13,0,0,1,7.75,1.73,38.06,38.06,0,0,1,6.13,8.88c4.51,10.3,8.6,20.78,12.81,31.21,2.77,6.88-1.68,13.8-9.86,14.71-4.7.52-9.49.09-14.25.09Z"></path></svg>